<svg xmlns="http://www.w3.org/2000/svg" aria-hidden="true" style="position: absolute; width: 0; height: 0; overflow: hidden;">
  <defs>


  <!-- <symbol id="html" viewBox="0 0 128 128">
        <path fill="aliceblue" d="M9.032 2l10.005 112.093 44.896 12.401 45.02-12.387 10.015-112.107h-109.936zm89.126 26.539l-.627 7.172-.276 3.289h-52.665000000000006l1.257 14h50.156000000000006l-.336 3.471-3.233 36.119-.238 2.27-28.196 7.749v.002l-.034.018-28.177-7.423-1.913-21.206h13.815000000000001l.979 10.919 15.287 4.081h.043v-.546l15.355-3.875 1.604-17.579h-47.698l-3.383-38.117-.329-3.883h68.939l-.33 3.539z"></path>
    </symbol> -->

   <svg id="html" xmlns="http://www.w3.org/2000/svg" x="0px" y="0px"  viewBox="0,0,256,256">
<g fill="none" fill-rule="nonzero" stroke="none" stroke-width="1" stroke-linecap="butt" stroke-linejoin="miter" stroke-miterlimit="10" stroke-dasharray="" stroke-dashoffset="0" font-family="none" font-weight="none" font-size="none" text-anchor="none" style="mix-blend-mode: normal"><g transform="scale(5.33333,5.33333)"><path d="M41,5h-34l3,34l14,4l14,-4l3,-34z" fill="#ffffff"></path><path d="M24,8v31.9l11.2,-3.2l2.5,-28.7z" fill="#ffffff"></path><path d="M24,25v-4h8.6l-0.7,11.5l-7.9,2.6v-4.2l4.1,-1.4l0.3,-4.5zM32.9,17l0.3,-4h-9.2v4z" fill="#6a6a6a"></path><path d="M24,30.9v4.2l-7.9,-2.6l-0.4,-5.5h4l0.2,2.5zM19.1,17h4.9v-4h-9.1l0.7,12h8.4v-4h-4.6z" fill="#6a6a6a"></path></g></g>
</svg>

<svg id="css" xmlns="http://www.w3.org/2000/svg" x="0px" y="0px"  viewBox="0,0,256,256"
style="fill:#000000;">
<g fill="none" fill-rule="nonzero" stroke="none" stroke-width="1" stroke-linecap="butt" stroke-linejoin="miter" stroke-miterlimit="10" stroke-dasharray="" stroke-dashoffset="0" font-family="none" font-weight="none" font-size="none" text-anchor="none" style="mix-blend-mode: normal"><g transform="scale(5.33333,5.33333)"><path d="M41,5h-34l3,34l14,4l14,-4l3,-34z" fill="#ffffff"></path><path d="M24,8v31.9l11.2,-3.2l2.5,-28.7z" fill="#ffffff"></path><path d="M33.1,13h-9.1v4h4.9l-0.3,4h-4.6v4h4.4l-0.3,4.5l-4.1,1.4v4.2l7.9,-2.6l0.7,-11.5v0z" fill="#85888a"></path><path d="M24,13v4h-8.9l-0.3,-4zM19.4,21l0.2,4h4.4v-4zM19.8,27h-4l0.3,5.5l7.9,2.6v-4.2l-4.1,-1.4z" fill="#7b7c7c"></path></g></g>
</svg>

<svg id="javascript" xmlns="http://www.w3.org/2000/svg" x="0px" y="0px" viewBox="0,0,256,256"
style="fill:#000000;">
<g fill="none" fill-rule="nonzero" stroke="none" stroke-width="1" stroke-linecap="butt" stroke-linejoin="miter" stroke-miterlimit="10" stroke-dasharray="" stroke-dashoffset="0" font-family="none" font-weight="none" font-size="none" text-anchor="none" style="mix-blend-mode: normal"><g transform="scale(5.33333,5.33333)"><path d="M6,42v-36h36v36z" fill="#ffffff"></path><path d="M29.538,32.947c0.692,1.124 1.444,2.201 3.037,2.201c1.338,0 2.04,-0.665 2.04,-1.585c0,-1.101 -0.726,-1.492 -2.198,-2.133l-0.807,-0.344c-2.329,-0.988 -3.878,-2.226 -3.878,-4.841c0,-2.41 1.845,-4.244 4.728,-4.244c2.053,0 3.528,0.711 4.592,2.573l-2.514,1.607c-0.553,-0.988 -1.151,-1.377 -2.078,-1.377c-0.946,0 -1.545,0.597 -1.545,1.377c0,0.964 0.6,1.354 1.985,1.951l0.807,0.344c2.745,1.169 4.293,2.363 4.293,5.047c0,2.892 -2.284,4.477 -5.35,4.477c-2.999,0 -4.702,-1.505 -5.65,-3.368zM17.952,33.029c0.506,0.906 1.275,1.603 2.381,1.603c1.058,0 1.667,-0.418 1.667,-2.043v-10.589h3.333v11.101c0,3.367 -1.953,4.899 -4.805,4.899c-2.577,0 -4.437,-1.746 -5.195,-3.368z" fill="#525252"></path></g></g>
</svg>

<svg id="bootstrap" xmlns="http://www.w3.org/2000/svg" x="0px" y="0px"  viewBox="0,0,256,256"
style="fill:#000000;">
<g fill="none" fill-rule="nonzero" stroke="none" stroke-width="1" stroke-linecap="butt" stroke-linejoin="miter" stroke-miterlimit="10" stroke-dasharray="" stroke-dashoffset="0" font-family="none" font-weight="none" font-size="none" text-anchor="none" style="mix-blend-mode: normal"><g transform="scale(5.33333,5.33333)"><path d="M7.373,11.443c-0.08,-2.311 1.721,-4.443 4.156,-4.443h24.946c2.435,0 4.236,2.132 4.155,4.443c-0.077,2.221 0.023,5.097 0.747,7.443c0.726,2.353 1.951,3.84 3.957,4.031v2.167c-2.006,0.191 -3.23,1.678 -3.957,4.031c-0.724,2.345 -0.824,5.222 -0.747,7.443c0.08,2.31 -1.721,4.442 -4.155,4.442h-24.946c-2.434,0 -4.236,-2.132 -4.155,-4.443c0.077,-2.221 -0.023,-5.097 -0.747,-7.443c-0.726,-2.353 -1.954,-3.84 -3.96,-4.031v-2.167c2.006,-0.191 3.233,-1.678 3.96,-4.031c0.723,-2.345 0.824,-5.221 0.746,-7.442z" fill="#ffffff"></path><path d="M27.073,23.464v-0.028c1.853,-0.32 3.299,-2.057 3.299,-3.97c0,-1.352 -0.52,-2.498 -1.504,-3.312c-0.981,-0.812 -2.357,-1.241 -3.981,-1.241h-7.437v18.167h7.475c1.942,0 3.555,-0.474 4.663,-1.372c1.109,-0.899 1.696,-2.207 1.696,-3.783c-0.001,-2.381 -1.691,-4.169 -4.211,-4.461zM23.59,22.608h-3.181v-5.318h3.784c2.076,0 3.219,0.911 3.219,2.565c0.001,1.775 -1.357,2.753 -3.822,2.753zM20.409,24.834h3.759c2.716,0 4.092,0.981 4.092,2.916c0,1.932 -1.357,2.953 -3.925,2.953h-3.926z" fill="#595959"></path></g></g>
</svg>


<svg id="mongodb" xmlns="http://www.w3.org/2000/svg" x="0px" y="0px"  viewBox="0,0,256,256"
style="fill:#000000;">
<g fill="none" fill-rule="nonzero" stroke="none" stroke-width="1" stroke-linecap="butt" stroke-linejoin="miter" stroke-miterlimit="10" stroke-dasharray="" stroke-dashoffset="0" font-family="none" font-weight="none" font-size="none" text-anchor="none" style="mix-blend-mode: normal"><g transform="scale(5.33333,5.33333)"><path d="M42,17.3c0,20.5 -18,26.7 -18,26.7c0,0 -18,-6.2 -18,-26.7c0,-2.5 0.2,-4.6 0.4,-6.3c0.3,-2.5 2,-4.5 4.4,-5.1c3.1,-0.9 8,-1.9 13.2,-1.9c5.2,0 10.1,1 13.3,1.9c2.4,0.6 4.1,2.7 4.4,5.1c0.1,1.7 0.3,3.9 0.3,6.3z" fill="#f6f6f6"></path><path d="M24,7c4.9,0 9.5,1 12.5,1.8c1.2,0.3 2,1.3 2.2,2.6c0.2,1.9 0.3,3.9 0.3,5.9c0,15.6 -11.5,21.9 -15,23.4c-3.5,-1.6 -15,-7.9 -15,-23.4c0,-2 0.1,-4 0.3,-5.9c0.1,-1.3 1,-2.3 2.2,-2.6c3,-0.8 7.6,-1.8 12.5,-1.8M24,4c-5.2,0 -10.1,1 -13.3,1.9c-2.3,0.6 -4.1,2.7 -4.3,5.1c-0.2,1.7 -0.4,3.9 -0.4,6.3c0,20.5 18,26.7 18,26.7c0,0 18,-6.2 18,-26.7c0,-2.5 -0.2,-4.6 -0.4,-6.3c-0.3,-2.5 -2,-4.5 -4.4,-5.1c-3.1,-0.9 -8,-1.9 -13.2,-1.9z" fill="#6a6a6a"></path><path d="M23,28h2v8h-2z" fill="#4b4b4b"></path><path d="M24,10c0,0 -6,5 -6,13c0,5.2 3.3,8.5 5,10l1,-3l1,3c1.7,-1.5 5,-4.8 5,-10c0,-8 -6,-13 -6,-13z" fill="#6a6a6a"></path><path d="M24,10c0,0 -6,5 -6,13c0,5.2 3.3,8.5 5,10l1,-3z" fill="#787878"></path></g></g>
</svg>

<svg id="express" xmlns="http://www.w3.org/2000/svg" x="0px" y="0px"  viewBox="0,0,256,256"
style="fill:#000000;">
<g fill="#ffffff" fill-rule="nonzero" stroke="none" stroke-width="1" stroke-linecap="butt" stroke-linejoin="miter" stroke-miterlimit="10" stroke-dasharray="" stroke-dashoffset="0" font-family="none" font-weight="none" font-size="none" text-anchor="none" style="mix-blend-mode: normal"><g transform="scale(5.33333,5.33333)"><path d="M23.697,37.56h1.18c0.84,0 1.631,-0.392 2.139,-1.061l7.485,-9.847l7.485,9.847c0.508,0.668 1.299,1.061 2.139,1.061h1.18l-9.549,-12.56l9.121,-12h-1.18c-0.84,0 -1.631,0.392 -2.139,1.061l-7.058,9.286l-7.059,-9.287c-0.508,-0.668 -1.299,-1.06 -2.139,-1.06h-1.18l9.121,12z"></path><path d="M24,26v-3c0,-6.675 -5.945,-11.961 -12.829,-10.852c-5.359,0.863 -9.171,5.709 -9.171,11.136v0.716v2v0.142c0,6.553 4.777,11.786 10.868,11.858c5.092,0.06 9.389,-3.344 10.707,-7.999h-1.028c-0.62,0 -1.182,0.355 -1.451,0.913c-1.739,3.595 -5.789,5.862 -10.228,4.842c-4.092,-0.941 -6.868,-4.775 -6.868,-8.973v-0.783zM4,23.71c0,-4.708 2.804,-8.557 6.924,-9.478c5.874,-1.312 11.076,3.12 11.076,8.768v1h-18z"></path></g></g>
</svg>

<svg id="react" xmlns="http://www.w3.org/2000/svg" x="0px" y="0px"  viewBox="0,0,256,256"
style="fill:#000000;">
<g fill="#fff" fill-rule="nonzero" stroke="none" stroke-width="1" stroke-linecap="butt" stroke-linejoin="miter" stroke-miterlimit="10" stroke-dasharray="" stroke-dashoffset="0" font-family="none" font-weight="none" font-size="none" text-anchor="none" style="mix-blend-mode: normal"><g transform="scale(5.33333,5.33333)"><path d="M24,34c-12.9,0 -23,-4.4 -23,-10c0,-5.6 10.1,-10 23,-10c12.9,0 23,4.4 23,10c0,5.6 -10.1,10 -23,10zM24,16c-12.6,0 -21,4.1 -21,8c0,3.9 8.4,8 21,8c12.6,0 21,-4.1 21,-8c0,-3.9 -8.4,-8 -21,-8z"></path><path d="M15.1,44.6c-1,0 -1.8,-0.2 -2.6,-0.7c-4.9,-2.8 -3.6,-13.7 2.8,-24.9v0c3,-5.2 6.7,-9.6 10.3,-12.4c3.9,-3 7.4,-3.9 9.8,-2.5c2.5,1.4 3.4,4.9 2.8,9.8c-0.6,4.6 -2.6,10 -5.6,15.2c-3,5.2 -6.7,9.6 -10.3,12.4c-2.6,2 -5.1,3.1 -7.2,3.1zM32.9,5.4c-1.6,0 -3.7,0.9 -6,2.7c-3.4,2.7 -6.9,6.9 -9.8,11.9v0c-6.3,10.9 -6.9,20.3 -3.6,22.2c1.7,1 4.5,0.1 7.6,-2.3c3.4,-2.7 6.9,-6.9 9.8,-11.9c2.9,-5 4.8,-10.1 5.4,-14.4c0.5,-4 -0.1,-6.8 -1.8,-7.8c-0.5,-0.2 -1,-0.4 -1.6,-0.4z"></path><path d="M33,44.6c-5,0 -12.2,-6.1 -17.6,-15.6c-6.5,-11.2 -7.8,-22.1 -2.9,-24.9v0c4.9,-2.8 13.7,3.7 20.2,14.9c3,5.2 5,10.6 5.6,15.2c0.7,4.9 -0.3,8.3 -2.8,9.8c-0.8,0.4 -1.6,0.6 -2.5,0.6zM13.5,5.8c-3.3,1.9 -2.7,11.3 3.6,22.2c6.3,10.9 14.1,16.1 17.4,14.2c1.7,-1 2.3,-3.8 1.8,-7.8c-0.6,-4.3 -2.5,-9.4 -5.4,-14.4c-6.3,-10.9 -14.1,-16.1 -17.4,-14.2z"></path><circle cx="24" cy="24" r="4"></circle></g></g>
</svg>

  <symbol id="nodejs" viewBox="0 0 128 128">
        <path fill="aliceblue" d="M112.771 30.334l-44.097-25.605c-2.781-1.584-6.402-1.584-9.205 0l-44.568 25.605c-2.87 1.651-4.901 4.754-4.901 8.073v51.142c0 3.319 2.084 6.423 4.954 8.083l11.775 6.688c5.628 2.772 7.617 2.772 10.178 2.772 8.333 0 13.093-5.039 13.093-13.828v-50.49c0-.713-.371-1.774-1.071-1.774h-5.623c-.712 0-2.306 1.061-2.306 1.773v50.49c0 3.896-3.524 7.773-10.11 4.48l-12.167-7.013c-.424-.23-.723-.693-.723-1.181v-51.142c0-.482.555-.966.982-1.213l44.424-25.561c.415-.235 1.025-.235 1.439 0l43.882 25.555c.42.253.272.722.272 1.219v51.142c0 .488.183.963-.232 1.198l-44.086 25.576c-.378.227-.847.227-1.261 0l-11.307-6.749c-.341-.198-.746-.269-1.073-.086-3.146 1.783-3.726 2.02-6.677 3.043-.726.253-1.797.692.41 1.929l14.798 8.754c1.417.82 3.027 1.246 4.647 1.246 1.642 0 3.25-.426 4.667-1.246l43.885-25.582c2.87-1.672 4.23-4.764 4.23-8.083v-51.142c0-3.319-1.36-6.414-4.229-8.073zM77.91 81.445c-11.726 0-14.309-3.235-15.17-9.066-.1-.628-.633-1.379-1.272-1.379h-5.731c-.709 0-1.279.86-1.279 1.566 0 7.466 4.059 16.512 23.453 16.512 14.039 0 22.088-5.455 22.088-15.109 0-9.572-6.467-12.084-20.082-13.886-13.762-1.819-15.16-2.738-15.16-5.962 0-2.658 1.184-6.203 11.374-6.203 9.105 0 12.461 1.954 13.842 8.091.118.577.645.991 1.24.991h5.754c.354 0 .692-.143.94-.396.24-.272.367-.613.335-.979-.891-10.568-7.912-15.493-22.112-15.493-12.631 0-20.166 5.334-20.166 14.275 0 9.698 7.497 12.378 19.622 13.577 14.505 1.422 15.633 3.542 15.633 6.395 0 4.955-3.978 7.066-13.309 7.066z"></path>
    </symbol>

<svg id="postgresql" xmlns="http://www.w3.org/2000/svg" version="1.1" xmlns:xlink="http://www.w3.org/1999/xlink"  x="0" y="0" viewBox="0 0 97 97" style="enable-background:new 0 0 512 512" xml:space="preserve" class=""><g><g fill="#000"><path fill-rule="evenodd" d="M55.591 67.368c0-.505.463-.884.961-.798 1.926.333 3.907.506 5.928.506h5.284a2.6 2.6 0 1 0 0-5.2H62.48c-16.237 0-29.4-13.163-29.4-29.4V15.384a2 2 0 0 1 2-2h18.088c16.9 0 30.6 13.7 30.6 30.6V66.57c0 10.272-8.327 18.6-18.6 18.6h-2.977a6.6 6.6 0 0 1-6.6-6.6zm10.915-15.766a4 4 0 1 0 0-8 4 4 0 0 0 0 8z" clip-rule="evenodd" fill="#ffffff" opacity="1" data-original="#000000" class=""></path><path d="M27.355 18.319a.78.78 0 0 1 .525.742v13.415c0 14.163 8.509 26.338 20.694 31.692.295.13.488.42.488.741v6.424a6.6 6.6 0 0 1-6.6 6.6h-7.45c-12.483 0-22.6-10.118-22.6-22.6V23.288c0-3.343 2.596-6.413 6.285-6.327 2.273.053 5.574.316 8.658 1.358z" fill="#ffffff" opacity="1" data-original="#000000" class=""></path></g></g></svg>

<svg id="typescript" xmlns="http://www.w3.org/2000/svg" x="0px" y="0px"  viewBox="0,0,256,256"
style="fill:#000000;">
<g fill="none" fill-rule="nonzero" stroke="none" stroke-width="1" stroke-linecap="butt" stroke-linejoin="miter" stroke-miterlimit="10" stroke-dasharray="" stroke-dashoffset="0" font-family="none" font-weight="none" font-size="none" text-anchor="none" style="mix-blend-mode: normal"><g transform="scale(5.33333,5.33333)"><rect x="6" y="6" width="36" height="36" fill="#ffffff"></rect><path d="M27.49,22h-13.263v3.264h4.757v14.736h3.769v-14.736h4.737z" fill="#797a7a"></path><path d="M39.194,26.084c0,0 -1.787,-1.192 -3.807,-1.192c-2.02,0 -2.747,0.96 -2.747,1.986c0,2.648 7.381,2.383 7.381,7.712c0,8.209 -11.254,4.568 -11.254,4.568v-3.938c0,0 2.152,1.622 4.733,1.622c2.581,0 2.483,-1.688 2.483,-1.92c0,-2.449 -7.315,-2.449 -7.315,-7.878c0,-7.381 10.658,-4.469 10.658,-4.469z" fill="#797a7a"></path></g></g>
</svg>

<svg id="nextjs" xmlns="http://www.w3.org/2000/svg" x="0px" y="0px"  viewBox="0,0,256,256"
style="fill:#000000;">
<g fill="#ffffff" fill-rule="nonzero" stroke="none" stroke-width="1" stroke-linecap="butt" stroke-linejoin="miter" stroke-miterlimit="10" stroke-dasharray="" stroke-dashoffset="0" font-family="none" font-weight="none" font-size="none" text-anchor="none" style="mix-blend-mode: normal"><g transform="scale(5.33333,5.33333)"><path d="M18.974,31.5c0,0.828 -0.671,1.5 -1.5,1.5c-0.829,0 -1.5,-0.672 -1.5,-1.5v-14c0,-0.653 0.423,-1.231 1.045,-1.43c0.625,-0.198 1.302,0.03 1.679,0.563l16.777,23.704c5.142,-3.628 8.525,-9.602 8.525,-16.337c0,-11 -9,-20 -20,-20c-11,0 -20,9 -20,20c0,11 9,20 20,20c3.192,0 6.206,-0.777 8.89,-2.122l-13.916,-19.662zM28.974,16.5c0,-0.828 0.671,-1.5 1.5,-1.5c0.829,0 1.5,0.672 1.5,1.5v13.84l-3,-4.227z"></path></g></g>
</svg>

<svg id="figma" xmlns="http://www.w3.org/2000/svg" x="0px" y="0px"  viewBox="0,0,256,256"
style="fill:#000000;">
<g fill="#fbfbfb" fill-rule="nonzero" stroke="none" stroke-width="1" stroke-linecap="butt" stroke-linejoin="miter" stroke-miterlimit="10" stroke-dasharray="" stroke-dashoffset="0" font-family="none" font-weight="none" font-size="none" text-anchor="none" style="mix-blend-mode: normal"><g transform="scale(5.12,5.12)"><path d="M18.5,2c-4.68248,0 -8.5,3.81752 -8.5,8.5c0,3.30029 1.94993,6.09286 4.70898,7.5c-2.75906,1.40715 -4.70898,4.19971 -4.70898,7.5c0,3.30029 1.94993,6.09286 4.70898,7.5c-2.75906,1.40715 -4.70898,4.19971 -4.70898,7.5c0,4.68248 3.81752,8.5 8.5,8.5c4.68248,0 8.5,-3.81752 8.5,-8.5v-7.5v-3.34375c1.34137,2.54547 3.93207,4.34375 7,4.34375c4.40644,0 8,-3.59357 8,-8c0,-3.62175 -2.47383,-6.57131 -5.78516,-7.55078c3.33871,-1.14751 5.78516,-4.22899 5.78516,-7.94922c0,-4.68248 -3.81752,-8.5 -8.5,-8.5h-7.5zM18.5,4h6.5v13h-6.5c-3.60152,0 -6.5,-2.89848 -6.5,-6.5c0,-3.60152 2.89848,-6.5 6.5,-6.5zM27,4h6.5c3.60152,0 6.5,2.89848 6.5,6.5c0,3.60152 -2.89848,6.5 -6.5,6.5h-6.5zM18.5,19h6.5v13h-6.5c-3.60152,0 -6.5,-2.89848 -6.5,-6.5c0,-3.60152 2.89848,-6.5 6.5,-6.5zM27,19h3.34375c-1.43491,0.75615 -2.5876,1.90884 -3.34375,3.34375zM34,20c3.32556,0 6,2.67445 6,6c0,3.32555 -2.67444,6 -6,6c-3.32556,0 -6,-2.67445 -6,-6c0,-3.32555 2.67444,-6 6,-6zM18.5,34h6.5v6.5c0,3.60152 -2.89848,6.5 -6.5,6.5c-3.60152,0 -6.5,-2.89848 -6.5,-6.5c0,-3.60152 2.89848,-6.5 6.5,-6.5z"></path></g></g>
</svg>

<svg id="github" xmlns="http://www.w3.org/2000/svg" x="0px" y="0px"  viewBox="0,0,256,256"
style="fill:#000000;">
<g fill="#ffffff" fill-rule="nonzero" stroke="none" stroke-width="1" stroke-linecap="butt" stroke-linejoin="miter" stroke-miterlimit="10" stroke-dasharray="" stroke-dashoffset="0" font-family="none" font-weight="none" font-size="none" text-anchor="none" style="mix-blend-mode: normal"><g transform="scale(8.53333,8.53333)"><path d="M15,3c-6.627,0 -12,5.373 -12,12c0,5.623 3.872,10.328 9.092,11.63c-0.056,-0.162 -0.092,-0.35 -0.092,-0.583v-2.051c-0.487,0 -1.303,0 -1.508,0c-0.821,0 -1.551,-0.353 -1.905,-1.009c-0.393,-0.729 -0.461,-1.844 -1.435,-2.526c-0.289,-0.227 -0.069,-0.486 0.264,-0.451c0.615,0.174 1.125,0.596 1.605,1.222c0.478,0.627 0.703,0.769 1.596,0.769c0.433,0 1.081,-0.025 1.691,-0.121c0.328,-0.833 0.895,-1.6 1.588,-1.962c-3.996,-0.411 -5.903,-2.399 -5.903,-5.098c0,-1.162 0.495,-2.286 1.336,-3.233c-0.276,-0.94 -0.623,-2.857 0.106,-3.587c1.798,0 2.885,1.166 3.146,1.481c0.896,-0.307 1.88,-0.481 2.914,-0.481c1.036,0 2.024,0.174 2.922,0.483c0.258,-0.313 1.346,-1.483 3.148,-1.483c0.732,0.731 0.381,2.656 0.102,3.594c0.836,0.945 1.328,2.066 1.328,3.226c0,2.697 -1.904,4.684 -5.894,5.097c1.098,0.573 1.899,2.183 1.899,3.396v2.734c0,0.104 -0.023,0.179 -0.035,0.268c4.676,-1.639 8.035,-6.079 8.035,-11.315c0,-6.627 -5.373,-12 -12,-12z"></path></g></g>
</svg>


<svg id="aws" xmlns="http://www.w3.org/2000/svg" x="0px" y="0px" viewBox="0,0,256,256"
style="fill:#000000;">
<g fill="#ffffff" fill-rule="nonzero" stroke="none" stroke-width="1" stroke-linecap="butt" stroke-linejoin="miter" stroke-miterlimit="10" stroke-dasharray="" stroke-dashoffset="0" font-family="none" font-weight="none" font-size="none" text-anchor="none" style="mix-blend-mode: normal"><g transform="scale(8,8)"><path d="M6.58398,9.00977c-1.36,0 -2.7407,0.53031 -2.9707,0.82031c-0.06,0.12 -0.19914,1.08984 0.13086,1.08984c0.11,0 0.16047,0.01914 0.48047,-0.13086c1.2,-0.47 1.96031,-0.45898 2.07031,-0.45898c1.35,-0.13 2.12977,0.79047 2.00977,1.98047v0.69922c-1.14,-0.27 -1.79133,-0.2793 -2.11133,-0.2793c-1.66,-0.1 -3.19336,0.77522 -3.19336,2.69922c0,2.11 1.88328,2.56125 2.61328,2.53125c1.09,0.01 2.13031,-0.48008 2.82031,-1.33008c0.55,1.23 0.90016,1.14844 0.91016,1.14844c0.1,0 0.17977,-0.03984 0.25977,-0.08984l0.57031,-0.40039c0.1,-0.06 0.17945,-0.1593 0.18945,-0.2793c-0.01,-0.29 -0.53023,-0.74 -0.49023,-1.75v-3.11914c0.06,-0.86 -0.21883,-1.70156 -0.79883,-2.35156c-0.69,-0.58 -1.60023,-0.8593 -2.49023,-0.7793zM25.95703,9.00977c-2,0 -3.14914,1.24953 -3.11914,2.51953c0,1.74 1.75898,2.29156 1.95898,2.35156c1.69,0.53 1.92063,0.54922 2.39063,0.94922c0.4,0.41 0.34977,1.21055 -0.24023,1.56055c-0.17,0.1 -0.90078,0.53922 -2.55078,0.19922c-0.55,-0.11 -0.83906,-0.23969 -1.28906,-0.42969c-0.12,-0.04 -0.40039,-0.11023 -0.40039,0.25977v0.49023c0,0.23 0.13961,0.43906 0.34961,0.53906c1.05,0.53 2.31008,0.55078 2.58008,0.55078c0.04,0 2.33938,0.00122 3.10938,-1.55078c0.159,-0.32 0.57078,-1.48828 -0.19922,-2.48828c-0.64,-0.75 -1.19008,-0.83008 -2.83008,-1.33008c-0.14,-0.04 -1.34984,-0.35117 -1.33984,-1.20117c-0.06,-1.09 1.42047,-1.14891 1.73047,-1.12891c1.25,-0.02 1.86898,0.44852 2.20898,0.47852c0.15,0 0.2207,-0.08906 0.2207,-0.28906v-0.46094c0.01,-0.11 -0.02984,-0.21859 -0.08984,-0.30859c-0.4,-0.52 -1.93023,-0.71094 -2.49023,-0.71094zM10.77734,9.25977c-0.11,0.02 -0.18992,0.13023 -0.16992,0.24023c0.02,0.13 0.03984,0.26062 0.08984,0.39063l2.24023,7.38867c0.05,0.24 0.20859,0.50094 0.55859,0.46094h0.82031c0.5,0.05 0.57008,-0.43047 0.58008,-0.48047l1.4707,-6.16016l1.49023,6.16992c0.01,0.05 0.08031,0.53047 0.57031,0.48047h0.83008c0.36,0.04 0.53008,-0.22094 0.58008,-0.46094c2.52,-8.11 2.34914,-7.55867 2.36914,-7.63867c0.04,-0.42 -0.20023,-0.39086 -0.24023,-0.38086h-0.89062c-0.45,-0.05 -0.53859,0.36094 -0.55859,0.46094l-1.66016,6.41016l-1.5,-6.41016c-0.07,-0.49 -0.47031,-0.47094 -0.57031,-0.46094h-0.76953c-0.44,-0.04 -0.55008,0.31094 -0.58008,0.46094l-1.49023,6.32031l-1.59961,-6.32031c-0.04,-0.2 -0.17055,-0.5107 -0.56055,-0.4707zM6.52344,13.89063c0.72,0.01 1.34148,0.11875 1.77148,0.21875c0,0.5 0.0182,0.78047 -0.0918,1.23047c-0.14,0.48 -0.75875,1.35109 -2.21875,1.37109c-0.84,0.04 -1.38984,-0.62109 -1.33984,-1.37109c-0.05,-1.2 1.18891,-1.49922 1.87891,-1.44922zM29.04102,20.00195c-0.93337,0.013 -2.03509,0.22209 -2.87109,0.80859c-0.258,0.179 -0.21278,0.42753 0.07422,0.39453c0.94,-0.113 3.03225,-0.36667 3.40625,0.11133c0.375,0.478 -0.41467,2.45003 -0.76367,3.33203c-0.108,0.263 0.12033,0.37187 0.36133,0.17187c1.564,-1.31 1.97039,-4.05617 1.65039,-4.45117c-0.1605,-0.1975 -0.92405,-0.38019 -1.85742,-0.36719zM1.2168,21.00195c-0.21806,0.03 -0.31198,0.30639 -0.08398,0.52539c3.917,3.674 9.09284,5.47266 14.83984,5.47266c4.099,0 8.85758,-1.33742 12.14258,-3.85742c0.543,-0.419 0.08044,-1.04683 -0.47656,-0.79883c-3.683,1.625 -7.68322,2.4082 -11.32422,2.4082c-5.396,0 -10.6197,-1.12655 -14.8457,-3.68555c-0.0925,-0.056 -0.17927,-0.07445 -0.25195,-0.06445z"></path></g></g>
</svg>

    <!-- 
    <symbol id="react" viewBox="0 0 128 128">
        <path fill="aliceblue" d="M107.3 45.2c-2.2-.8-4.5-1.6-6.9-2.3.6-2.4 1.1-4.8 1.5-7.1 2.1-13.2-.2-22.5-6.6-26.1-1.9-1.1-4-1.6-6.4-1.6-7 0-15.9 5.2-24.9 13.9-9-8.7-17.9-13.9-24.9-13.9-2.4 0-4.5.5-6.4 1.6-6.4 3.7-8.7 13-6.6 26.1.4 2.3.9 4.7 1.5 7.1-2.4.7-4.7 1.4-6.9 2.3-12.5 4.8-19.3 11.4-19.3 18.8s6.9 14 19.3 18.8c2.2.8 4.5 1.6 6.9 2.3-.6 2.4-1.1 4.8-1.5 7.1-2.1 13.2.2 22.5 6.6 26.1 1.9 1.1 4 1.6 6.4 1.6 7.1 0 16-5.2 24.9-13.9 9 8.7 17.9 13.9 24.9 13.9 2.4 0 4.5-.5 6.4-1.6 6.4-3.7 8.7-13 6.6-26.1-.4-2.3-.9-4.7-1.5-7.1 2.4-.7 4.7-1.4 6.9-2.3 12.5-4.8 19.3-11.4 19.3-18.8s-6.8-14-19.3-18.8zm-14.8-30.5c4.1 2.4 5.5 9.8 3.8 20.3-.3 2.1-.8 4.3-1.4 6.6-5.2-1.2-10.7-2-16.5-2.5-3.4-4.8-6.9-9.1-10.4-13 7.4-7.3 14.9-12.3 21-12.3 1.3 0 2.5.3 3.5.9zm-11.2 59.3c-1.8 3.2-3.9 6.4-6.1 9.6-3.7.3-7.4.4-11.2.4-3.9 0-7.6-.1-11.2-.4-2.2-3.2-4.2-6.4-6-9.6-1.9-3.3-3.7-6.7-5.3-10 1.6-3.3 3.4-6.7 5.3-10 1.8-3.2 3.9-6.4 6.1-9.6 3.7-.3 7.4-.4 11.2-.4 3.9 0 7.6.1 11.2.4 2.2 3.2 4.2 6.4 6 9.6 1.9 3.3 3.7 6.7 5.3 10-1.7 3.3-3.4 6.6-5.3 10zm8.3-3.3c1.5 3.5 2.7 6.9 3.8 10.3-3.4.8-7 1.4-10.8 1.9 1.2-1.9 2.5-3.9 3.6-6 1.2-2.1 2.3-4.2 3.4-6.2zm-25.6 27.1c-2.4-2.6-4.7-5.4-6.9-8.3 2.3.1 4.6.2 6.9.2 2.3 0 4.6-.1 6.9-.2-2.2 2.9-4.5 5.7-6.9 8.3zm-18.6-15c-3.8-.5-7.4-1.1-10.8-1.9 1.1-3.3 2.3-6.8 3.8-10.3 1.1 2 2.2 4.1 3.4 6.1 1.2 2.2 2.4 4.1 3.6 6.1zm-7-25.5c-1.5-3.5-2.7-6.9-3.8-10.3 3.4-.8 7-1.4 10.8-1.9-1.2 1.9-2.5 3.9-3.6 6-1.2 2.1-2.3 4.2-3.4 6.2zm25.6-27.1c2.4 2.6 4.7 5.4 6.9 8.3-2.3-.1-4.6-.2-6.9-.2-2.3 0-4.6.1-6.9.2 2.2-2.9 4.5-5.7 6.9-8.3zm22.2 21l-3.6-6c3.8.5 7.4 1.1 10.8 1.9-1.1 3.3-2.3 6.8-3.8 10.3-1.1-2.1-2.2-4.2-3.4-6.2zm-54.5-16.2c-1.7-10.5-.3-17.9 3.8-20.3 1-.6 2.2-.9 3.5-.9 6 0 13.5 4.9 21 12.3-3.5 3.8-7 8.2-10.4 13-5.8.5-11.3 1.4-16.5 2.5-.6-2.3-1-4.5-1.4-6.6zm-24.7 29c0-4.7 5.7-9.7 15.7-13.4 2-.8 4.2-1.5 6.4-2.1 1.6 5 3.6 10.3 6 15.6-2.4 5.3-4.5 10.5-6 15.5-13.8-4-22.1-10-22.1-15.6zm28.5 49.3c-4.1-2.4-5.5-9.8-3.8-20.3.3-2.1.8-4.3 1.4-6.6 5.2 1.2 10.7 2 16.5 2.5 3.4 4.8 6.9 9.1 10.4 13-7.4 7.3-14.9 12.3-21 12.3-1.3 0-2.5-.3-3.5-.9zm60.8-20.3c1.7 10.5.3 17.9-3.8 20.3-1 .6-2.2.9-3.5.9-6 0-13.5-4.9-21-12.3 3.5-3.8 7-8.2 10.4-13 5.8-.5 11.3-1.4 16.5-2.5.6 2.3 1 4.5 1.4 6.6zm9-15.6c-2 .8-4.2 1.5-6.4 2.1-1.6-5-3.6-10.3-6-15.6 2.4-5.3 4.5-10.5 6-15.5 13.8 4 22.1 10 22.1 15.6 0 4.7-5.8 9.7-15.7 13.4z"></path>
    </symbol>

  
    
    <symbol id="css" viewBox="0 0 128 128">
        <path fill="aliceblue" d="M8.76 1l10.055 112.883 45.118 12.58 45.244-12.626 10.063-112.837h-110.48zm89.591 25.862l-3.347 37.605.01.203-.014.467v-.004l-2.378 26.294-.262 2.336-28.36 7.844v.001l-.022.019-28.311-7.888-1.917-21.739h13.883l.985 11.054 15.386 4.17-.004.008v-.002l15.443-4.229 1.632-18.001h-32.282999999999994l-.277-3.043-.631-7.129-.331-3.828h34.748999999999995l1.264-14h-52.926l-.277-3.041-.63-7.131-.332-3.828h69.281l-.331 3.862z"></path>
    </symbol>

    <symbol id="html" viewBox="0 0 128 128">
        <path fill="aliceblue" d="M9.032 2l10.005 112.093 44.896 12.401 45.02-12.387 10.015-112.107h-109.936zm89.126 26.539l-.627 7.172-.276 3.289h-52.665000000000006l1.257 14h50.156000000000006l-.336 3.471-3.233 36.119-.238 2.27-28.196 7.749v.002l-.034.018-28.177-7.423-1.913-21.206h13.815000000000001l.979 10.919 15.287 4.081h.043v-.546l15.355-3.875 1.604-17.579h-47.698l-3.383-38.117-.329-3.883h68.939l-.33 3.539z"></path>
    </symbol>

    <symbol id="git" viewBox="0 0 128 128">
        <path fill="aliceblue" d="M124.737 58.378l-55.116-55.114c-3.172-3.174-8.32-3.174-11.497 0l-11.444 11.446 14.518 14.518c3.375-1.139 7.243-.375 9.932 2.314 2.703 2.706 3.461 6.607 2.294 9.993l13.992 13.993c3.385-1.167 7.292-.413 9.994 2.295 3.78 3.777 3.78 9.9 0 13.679-3.78 3.78-9.901 3.78-13.683 0-2.842-2.844-3.545-7.019-2.105-10.521l-13.048-13.048-.002 34.341c.922.455 1.791 1.063 2.559 1.828 3.778 3.777 3.778 9.898 0 13.683-3.779 3.777-9.904 3.777-13.679 0-3.778-3.784-3.778-9.905 0-13.683.934-.933 2.014-1.638 3.167-2.11v-34.659c-1.153-.472-2.231-1.172-3.167-2.111-2.862-2.86-3.551-7.06-2.083-10.576l-14.313-14.313-37.792 37.79c-3.175 3.177-3.175 8.325 0 11.5l55.117 55.114c3.174 3.174 8.32 3.174 11.499 0l54.858-54.858c3.174-3.176 3.174-8.327-.001-11.501z"></path>
    </symbol>

    <symbol id="figma" viewBox="0 0 384 512">
        <path fill="aliceblue" d="M277 170.7A85.35 85.35 0 0 0 277 0H106.3a85.3 85.3 0 0 0 0 170.6 85.35 85.35 0 0 0 0 170.7 85.35 85.35 0 1 0 85.3 85.4v-256zm0 0a85.3 85.3 0 1 0 85.3 85.3 85.31 85.31 0 0 0-85.3-85.3z"></path>
    </symbol>

    <symbol id="github" viewBox="0 0 64 64">
        <path fill="aliceblue" d="M32,6c-14.359,0 -26,11.641 -26,26c0,12.277 8.512,22.56 19.955,25.286c-0.592,-0.141 -1.179,-0.299 -1.755,-0.479v-5.957c0,0 -0.975,0.325 -2.275,0.325c-3.637,0 -5.148,-3.245 -5.525,-4.875c-0.229,-0.993 -0.827,-1.934 -1.469,-2.509c-0.767,-0.684 -1.126,-0.686 -1.131,-0.92c-0.01,-0.491 0.658,-0.471 0.975,-0.471c1.625,0 2.857,1.729 3.429,2.623c1.417,2.207 2.938,2.577 3.721,2.577c0.975,0 1.817,-0.146 2.397,-0.426c0.268,-1.888 1.108,-3.57 2.478,-4.774c-6.097,-1.219 -10.4,-4.716 -10.4,-10.4c0,-2.928 1.175,-5.619 3.133,-7.792c-0.2,-0.567 -0.533,-1.714 -0.533,-3.583c0,-1.235 0.086,-2.751 0.65,-4.225c0,0 3.708,0.026 7.205,3.338c1.614,-0.47 3.341,-0.738 5.145,-0.738c1.804,0 3.531,0.268 5.145,0.738c3.497,-3.312 7.205,-3.338 7.205,-3.338c0.567,1.474 0.65,2.99 0.65,4.225c0,2.015 -0.268,3.19 -0.432,3.697c1.898,2.153 3.032,4.802 3.032,7.678c0,5.684 -4.303,9.181 -10.4,10.4c1.628,1.43 2.6,3.513 2.6,5.85v8.557c-0.576,0.181 -1.162,0.338 -1.755,0.479c11.443,-2.726 19.955,-13.009 19.955,-25.286c0,-14.359 -11.641,-26 -26,-26zM33.813,57.93c-0.599,0.042 -1.203,0.07 -1.813,0.07c0.61,0 1.213,-0.029 1.813,-0.07zM37.786,57.346c-1.164,0.265 -2.357,0.451 -3.575,0.554c1.218,-0.103 2.411,-0.29 3.575,-0.554zM32,58c-0.61,0 -1.214,-0.028 -1.813,-0.07c0.6,0.041 1.203,0.07 1.813,0.07zM29.788,57.9c-1.217,-0.103 -2.411,-0.289 -3.574,-0.554c1.164,0.264 2.357,0.451 3.574,0.554z"></path>
    </symbol>



<svg id="express" version="1.1" xmlns="http://www.w3.org/2000/svg" xmlns:xlink="http://www.w3.org/1999/xlink" viewBox="0,0,256,256"><g fill="#ffffff" fill-rule="nonzero" stroke="none" stroke-width="1" stroke-linecap="butt" stroke-linejoin="miter" stroke-miterlimit="10" stroke-dasharray="" stroke-dashoffset="0" font-family="none" font-weight="none" font-size="none" text-anchor="none" style="mix-blend-mode: normal"><g transform="scale(5.33333,5.33333)"><path d="M23.697,37.56h1.18c0.84,0 1.631,-0.392 2.139,-1.061l7.485,-9.847l7.485,9.847c0.508,0.668 1.299,1.061 2.139,1.061h1.18l-9.549,-12.56l9.121,-12h-1.18c-0.84,0 -1.631,0.392 -2.139,1.061l-7.058,9.286l-7.059,-9.287c-0.508,-0.668 -1.299,-1.06 -2.139,-1.06h-1.18l9.121,12z"></path><path d="M24,26v-3c0,-6.675 -5.945,-11.961 -12.829,-10.852c-5.359,0.863 -9.171,5.709 -9.171,11.136v0.716v2v0.142c0,6.553 4.777,11.786 10.868,11.858c5.092,0.06 9.389,-3.344 10.707,-7.999h-1.028c-0.62,0 -1.182,0.355 -1.451,0.913c-1.739,3.595 -5.789,5.862 -10.228,4.842c-4.092,-0.941 -6.868,-4.775 -6.868,-8.973v-0.783zM4,23.71c0,-4.708 2.804,-8.557 6.924,-9.478c5.874,-1.312 11.076,3.12 11.076,8.768v1h-18z"></path></g></g></svg>

<svg id="mongodb" xmlns="http://www.w3.org/2000/svg" version="1.1" xmlns:xlink="http://www.w3.org/1999/xlink"  x="0" y="0" viewBox="0 0 512.001 512.001" style="enable-background:new 0 0 512 512" xml:space="preserve" class=""><g><path d="M334 57.959c-5.522 0-10 4.507-10 10.03s4.478 10.001 10 10.001 10-4.477 10-10v-.061c0-5.523-4.477-9.97-10-9.97zM295.542 41.572C270.477 37.333 237.612 35 203 35c-5.522 0-10 4.477-10 10s4.478 10 10 10c33.528 0 65.209 2.234 89.206 6.291a9.999 9.999 0 0 0 1.679.142c4.79 0 9.023-3.454 9.849-8.334.92-5.446-2.747-10.606-8.192-11.527zM446 383.999c-5.522 0-10 4.477-10 10 0 11.219-4.369 21.766-12.302 29.698-16.375 16.376-43.021 16.376-59.396 0-7.933-7.932-12.302-18.479-12.302-29.698s4.368-21.766 12.302-29.699a42.015 42.015 0 0 1 32.442-12.212c5.485.35 10.27-3.819 10.627-9.33.358-5.511-3.818-10.27-9.33-10.628a62.03 62.03 0 0 0-47.882 18.028c-11.71 11.71-18.159 27.28-18.159 43.841s6.449 32.13 18.159 43.841c12.087 12.087 27.964 18.13 43.841 18.13s31.754-6.043 43.841-18.13C449.551 426.13 456 410.56 456 393.999c0-5.523-4.477-10-10-10z" fill="#ffffff" opacity="1" data-original="#000000" class=""></path><path d="m437.872 350.188-.159-.159-7.118 7.024 7.071-7.071c-3.906-3.905-10.236-3.905-14.143 0-3.905 3.905-3.905 10.237 0 14.143l.147.146a9.966 9.966 0 0 0 7.101 2.958 9.972 9.972 0 0 0 7.042-2.899c3.921-3.889 3.947-10.221.059-14.142z" fill="#ffffff" opacity="1" data-original="#000000" class=""></path><path d="m504.417 367.818-14.517-3.616-7.021-16.94 7.702-12.814a9.999 9.999 0 0 0-1.499-12.223l-23.308-23.308a10 10 0 0 0-12.224-1.499l-12.813 7.703-16.94-7.021-3.617-14.518a9.998 9.998 0 0 0-9.703-7.583H406V67.99c0-20.58-22.01-38.07-63.65-50.582C304.989 6.182 255.5 0 203 0S101.013 6.182 63.651 17.408C22.01 29.919 0 47.41 0 67.99v376.02c0 20.58 22.01 38.07 63.65 50.582C101.013 505.818 150.5 512 203 512c22.181 0 43.956-1.105 64.722-3.285 5.493-.577 9.478-5.497 8.901-10.989-.576-5.494-5.511-9.479-10.989-8.901C245.56 490.932 224.485 492 203 492c-50.604 0-98.049-5.882-133.594-16.562C32.94 464.481 20 451.66 20 444.01v-94.214c10.541 7.357 25.154 13.899 43.65 19.456C101.013 380.478 150.5 386.66 203 386.66c15.327 0 30.597-.534 45.384-1.587 5.509-.392 9.657-5.176 9.265-10.685-.392-5.509-5.203-9.661-10.685-9.264-14.316 1.019-29.108 1.536-43.964 1.536-50.604 0-98.049-5.882-133.594-16.562C32.94 339.141 20 326.32 20 318.67v-94.215c10.542 7.357 25.155 13.899 43.651 19.456 37.36 11.226 86.849 17.408 139.349 17.408s101.988-6.182 139.349-17.408c18.497-5.558 33.11-12.1 43.651-19.456v51.544h-8.478a9.998 9.998 0 0 0-9.703 7.583l-3.617 14.518-16.94 7.021-12.813-7.703a10 10 0 0 0-12.224 1.499l-23.308 23.308a10 10 0 0 0-1.499 12.223l7.702 12.814-7.021 16.94-14.517 3.616a10 10 0 0 0-7.583 9.704v32.955a10 10 0 0 0 7.582 9.703l14.518 3.617 7.021 16.94-7.703 12.815a10.002 10.002 0 0 0 1.5 12.223l23.308 23.307a10.004 10.004 0 0 0 12.224 1.5l12.813-7.703 16.94 7.021 3.617 14.518a9.998 9.998 0 0 0 9.703 7.583h32.955a9.998 9.998 0 0 0 9.703-7.583l3.617-14.518 16.94-7.021 12.813 7.703a10 10 0 0 0 12.224-1.5l23.308-23.307a10.002 10.002 0 0 0 1.5-12.223l-7.703-12.815 7.021-16.94 14.518-3.617a10 10 0 0 0 7.582-9.703v-32.955a10 10 0 0 0-7.583-9.704zM69.406 36.562C104.951 25.882 152.396 20 203 20s98.049 5.882 133.594 16.562C373.062 47.519 386 60.34 386 67.99c0 7.65-12.939 20.471-49.406 31.427-35.545 10.68-82.989 16.562-133.594 16.562s-98.049-5.882-133.594-16.562C32.94 88.46 20 75.64 20 67.99s12.94-20.471 49.406-31.428zm267.188 188.195c-35.545 10.68-82.989 16.562-133.594 16.562s-98.049-5.882-133.594-16.562C32.94 213.801 20 200.98 20 193.33V99.115c10.542 7.357 25.155 13.899 43.651 19.456 37.36 11.226 86.849 17.408 139.349 17.408s101.988-6.182 139.349-17.408c18.497-5.558 33.11-12.1 43.651-19.456v94.215c0 7.65-12.938 20.471-49.406 31.427zM492 402.662l-11.826 2.947a9.999 9.999 0 0 0-6.82 5.875l-10.881 26.255a9.997 9.997 0 0 0 .668 8.98l6.274 10.439-12.256 12.256-10.438-6.275a10.003 10.003 0 0 0-8.98-.667l-26.256 10.88a10 10 0 0 0-5.875 6.821l-2.946 11.826h-17.326l-2.946-11.826a10 10 0 0 0-5.875-6.821l-26.256-10.88a9.998 9.998 0 0 0-8.98.667l-10.438 6.275-12.256-12.256 6.274-10.439a9.997 9.997 0 0 0 .668-8.98l-10.881-26.255a10.001 10.001 0 0 0-6.82-5.875L296 402.662v-17.326l11.825-2.946a10.003 10.003 0 0 0 6.821-5.875l10.881-26.255a9.997 9.997 0 0 0-.668-8.98l-6.274-10.439 12.256-12.256 10.438 6.275a9.993 9.993 0 0 0 8.98.668l26.256-10.881a10 10 0 0 0 5.875-6.821L385.337 296h17.326l2.946 11.826a10 10 0 0 0 5.875 6.821l26.256 10.881a10.003 10.003 0 0 0 8.98-.668l10.438-6.275 12.256 12.256-6.274 10.439a9.997 9.997 0 0 0-.668 8.98l10.881 26.255a10.003 10.003 0 0 0 6.821 5.875L492 385.336v17.326z" fill="#ffffff" opacity="1" data-original="#000000" class=""></path></g></svg>

    <symbol id="vercel" viewBox="0 0 76 65">
        <path fill="aliceblue" d="M37.5274 0L75.0548 65H0L37.5274 0Z" />
    </symbol>

    <symbol id="netlify" viewBox="0 0 24 24">
        <path fill="aliceblue" d="M16.934 8.519a1.044 1.044 0 0 1 .303.23l2.349-1.045-2.192-2.171-.491 2.954zM12.06 6.546a1.305 1.305 0 0 1 .209.574l3.497 1.482a1.044 1.044 0 0 1 .355-.177l.574-3.55-2.13-2.234-2.505 3.852v.053zm11.933 5.491l-3.748-3.748-2.548 1.044 6.264 2.662s.053.042.032.042zm-.627.606l-6.013-2.569a1.044 1.044 0 0 1-.7.407l-.647 3.957a1.044 1.044 0 0 1 .303.731l3.633.762 3.33-3.31v-.062zM15.4 9.25L12.132 7.86a1.2 1.2 0 0 1-1.044.543h-.199L8.185 12.58l7.225-3.132v.01a.887.887 0 0 1 0-.167.052.052 0 0 0-.01-.041zm3.967 7.308l-3.195-.658a1.096 1.096 0 0 1-.46.344l-.761 4.72 4.437-4.396s-.01.02-.021.02zm-4.469-.324a1.044 1.044 0 0 1-.616-.71l-5.95-1.222-.084.136 5.398 7.81.323-.324.919-5.67s.031.022.01.011zm-6.441-2.652l5.878 1.211a1.044 1.044 0 0 1 .824-.522l.637-3.894-.135-.115-7.308 3.132a1.817 1.817 0 0 1 .104.188zm-2.464.981l-.125-.125-2.537 1.044 1.232 1.222 1.399-2.172zm1.67.397a1.368 1.368 0 0 1-.563.125 1.389 1.389 0 0 1-.45-.073l-1.544 2.245 6.765 6.702 1.19-1.18zm-.95-2.641a1.702 1.702 0 0 1 .314 0 1.378 1.378 0 0 1 .344 0l2.735-4.25a1.19 1.19 0 0 1-.334-.824 1.242 1.242 0 0 1 0-.271l-3.32-1.535-2.672 2.6zm.303-7.402l3.237 1.378a1.242 1.242 0 0 1 .835-.282 1.357 1.357 0 0 1 .397.063l2.526-3.947L11.923.041 7.016 4.854s-.01.052 0 .063zm-1.21 8.164a1.566 1.566 0 0 1 .24-.334L3.278 8.613 0 11.797l5.804 1.284zm-.262.7L.533 12.735l2.203 2.235 2.777-1.18z"/>
    </symbol>

    

    <symbol id="nextjs" viewBox="0 0 270 270">
    <path d="M119.616813,0.0688905149 C119.066276,0.118932037 117.314565,0.294077364 115.738025,0.419181169 C79.3775171,3.69690087 45.3192571,23.3131775 23.7481916,53.4631946 C11.7364614,70.2271045 4.05395894,89.2428829 1.15112414,109.384595 C0.12512219,116.415429 0,118.492153 0,128.025062 C0,137.557972 0.12512219,139.634696 1.15112414,146.665529 C8.10791789,194.730411 42.3163245,235.11392 88.7116325,250.076335 C97.0197458,252.753556 105.778299,254.580072 115.738025,255.680985 C119.616813,256.106338 136.383187,256.106338 140.261975,255.680985 C157.453763,253.779407 172.017986,249.525878 186.382014,242.194795 C188.584164,241.068861 189.00958,240.768612 188.709286,240.518404 C188.509091,240.36828 179.124927,227.782837 167.86393,212.570214 L147.393939,184.922273 L121.743891,146.965779 C107.630108,126.098464 96.0187683,109.034305 95.9186706,109.034305 C95.8185728,109.009284 95.7184751,125.873277 95.6684262,146.465363 C95.5933529,182.52028 95.5683284,183.971484 95.1178886,184.82219 C94.4672532,186.048207 93.9667644,186.548623 92.915738,187.099079 C92.114956,187.499411 91.4142717,187.574474 87.6355816,187.574474 L83.3063539,187.574474 L82.1552297,186.848872 C81.4044966,186.373477 80.8539589,185.747958 80.4785924,185.022356 L79.9530792,183.896422 L80.0031281,133.729796 L80.0782014,83.5381493 L80.8539589,82.5623397 C81.25435,82.0369037 82.1051808,81.3613431 82.7057674,81.0360732 C83.7317693,80.535658 84.1321603,80.4856165 88.4613881,80.4856165 C93.5663734,80.4856165 94.4172043,80.6857826 95.7434995,82.1369867 C96.1188661,82.5373189 110.007429,103.454675 126.623656,128.650581 C143.239883,153.846488 165.962072,188.250034 177.122972,205.139048 L197.392766,235.839522 L198.418768,235.163961 C207.502639,229.259062 217.112023,220.852086 224.719453,212.09482 C240.910264,193.504394 251.345455,170.835585 254.848876,146.665529 C255.874878,139.634696 256,137.557972 256,128.025062 C256,118.492153 255.874878,116.415429 254.848876,109.384595 C247.892082,61.3197135 213.683675,20.9362052 167.288368,5.97379012 C159.105376,3.32158945 150.396872,1.49507389 140.637341,0.394160408 C138.234995,0.143952798 121.693842,-0.131275573 119.616813,0.0688905149 L119.616813,0.0688905149 Z M172.017986,77.4831252 C173.219159,78.0836234 174.195112,79.2345784 174.545455,80.435575 C174.74565,81.0861148 174.795699,94.9976579 174.74565,126.348671 L174.670577,171.336 L166.73783,159.17591 L158.780059,147.01582 L158.780059,114.313685 C158.780059,93.1711423 158.880156,81.2862808 159.030303,80.7108033 C159.430694,79.3096407 160.306549,78.2087272 161.507722,77.5581875 C162.533724,77.0327515 162.909091,76.98271 166.837928,76.98271 C170.541544,76.98271 171.19218,77.0327515 172.017986,77.4831252 Z" fill="#ffffff"> </path> 
    </symbol>

      <symbol id="typescript" viewBox="0 0 45 45" fill="#ffffff">
    <path d="M45,4h-40c-0.553,0 -1,0.448 -1,1v40c0,0.552 0.447,1 1,1h40c0.553,0 1,-0.448 1,-1v-40c0,-0.552 -0.447,-1 -1,-1zM29,26.445h-5v15.555h-4v-15.555h-5v-3.445h14zM30.121,41.112v-4.158c0,0 2.271,1.712 4.996,1.712c2.725,0 2.62,-1.782 2.62,-2.026c0,-2.586 -7.721,-2.586 -7.721,-8.315c0,-7.791 11.25,-4.717 11.25,-4.717l-0.14,3.704c0,0 -1.887,-1.258 -4.018,-1.258c-2.131,0 -2.9,1.013 -2.9,2.096c0,2.795 7.791,2.516 7.791,8.141c0.001,8.664 -11.878,4.821 -11.878,4.821z"></path>
    </symbol> -->


   
  </defs>
</svg>





    